<svg xmlns="http://www.w3.org/2000/svg" viewBox="0 0 24 24" fill="#000"><path d="M14 2h1v1h-1z"/><path d="M14 3h2v1h-2z"/><path d="M14 4h3v1h-3z"/><path d="M14 5h1v1h-1z"/><path d="M17 5h1v1h-1z"/><path d="M4 6h11v1h-11z"/><path d="M18 6h1v1h-1z"/><path d="M3 7h2v1h-2z"/><path d="M19 7h1v1h-1z"/><path d="M2 8h1v1h-1z"/><path d="M20 8h1v1h-1z"/><path d="M1 9h1v1h-1z"/><path d="M21 9h1v1h-1z"/><path d="M0 10h2v1h-2z"/><path d="M22 10h1v1h-1z"/><path d="M0 11h1v1h-1z"/><path d="M22 11h2v1h-2z"/><path d="M0 12h1v1h-1z"/><path d="M22 12h2v1h-2z"/><path d="M0 13h1v1h-1z"/><path d="M21 13h2v1h-2z"/><path d="M0 14h1v1h-1z"/><path d="M20 14h2v1h-2z"/><path d="M0 15h1v1h-1z"/><path d="M5 15h10v1h-10z"/><path d="M19 15h2v1h-2z"/><path d="M0 16h1v1h-1z"/><path d="M3 16h3v1h-3z"/><path d="M13 16h2v1h-2z"/><path d="M18 16h2v1h-2z"/><path d="M0 17h1v1h-1z"/><path d="M2 17h1v1h-1z"/><path d="M14 17h1v1h-1z"/><path d="M17 17h2v1h-2z"/><path d="M0 18h2v1h-2z"/><path d="M14 18h1v1h-1z"/><path d="M16 18h2v1h-2z"/><path d="M0 19h2v1h-2z"/><path d="M14 19h3v1h-3z"/><path d="M0 20h1v1h-1z"/><path d="M14 20h2v1h-2z"/><path d="M0 21h1v1h-1z"/></svg>